<svg width="13" height="14" viewBox="0 0 13 14" fill="none" xmlns="http://www.w3.org/2000/svg">
<path d="M3.54564 7.51562H6.03482V10.0048C6.03482 10.2578 6.24294 10.47 6.50002 10.47C6.7571 10.47 6.96521 10.2578 6.96521 10.0048V7.51562H9.4544C9.7074 7.51562 9.91959 7.30751 9.91959 7.05043C9.91959 6.79335 9.7074 6.58524 9.4544 6.58524H6.96521V4.09605C6.96521 3.84305 6.7571 3.63086 6.50002 3.63086C6.24294 3.63086 6.03482 3.84305 6.03482 4.09605V6.58524H3.54564C3.29264 6.58524 3.08044 6.79335 3.08044 7.05043C3.08044 7.30751 3.29264 7.51562 3.54564 7.51562Z" fill="black"/>
</svg>
