<svg width="64" height="42" viewBox="0 0 64 42" fill="none" xmlns="http://www.w3.org/2000/svg">
<rect width="64" height="42" rx="21" fill="white"/>
<path d="M30.7939 11.6472C32.3583 11.6458 33.888 12.1084 35.1895 12.9765C36.491 13.8446 37.5057 15.0792 38.1054 16.5241C38.7051 17.9691 38.8627 19.5594 38.5584 21.0939C38.254 22.6285 37.5014 24.0383 36.3957 25.145C35.29 26.2517 33.8809 27.0056 32.3466 27.3114C30.8123 27.6171 29.2219 27.4609 27.7764 26.8626C26.3309 26.2642 25.0954 25.2506 24.2261 23.9499C23.3568 22.6492 22.8928 21.1199 22.8928 19.5555C22.9023 17.4623 23.7375 15.4573 25.217 13.9765C26.6965 12.4957 28.7006 11.6586 30.7939 11.6472ZM30.7939 10.1666C28.9369 10.1666 27.1217 10.7173 25.5777 11.7489C24.0337 12.7806 22.8303 14.2469 22.1197 15.9625C21.4091 17.6781 21.2231 19.5659 21.5854 21.3872C21.9477 23.2085 22.8419 24.8814 24.1549 26.1945C25.468 27.5075 27.1409 28.4017 28.9622 28.764C30.7835 29.1263 32.6713 28.9403 34.3869 28.2297C36.1025 27.5191 37.5688 26.3157 38.6005 24.7717C39.6321 23.2277 40.1828 21.4125 40.1828 19.5555C40.1828 17.0654 39.1936 14.6773 37.4328 12.9166C35.6721 11.1558 33.284 10.1666 30.7939 10.1666Z" fill="#E21E26"/>
<path d="M44.2778 32.0427L38.955 26.6838L37.9294 27.7022L43.2522 33.0611C43.3191 33.1284 43.3986 33.1819 43.4861 33.2185C43.5736 33.2552 43.6675 33.2742 43.7624 33.2745C43.8573 33.2749 43.9514 33.2565 44.0392 33.2205C44.127 33.1845 44.2068 33.1315 44.2742 33.0647C44.3415 32.9978 44.395 32.9183 44.4316 32.8308C44.4683 32.7432 44.4873 32.6493 44.4876 32.5544C44.488 32.4595 44.4696 32.3655 44.4336 32.2777C44.3976 32.1899 44.3446 32.1101 44.2778 32.0427Z" fill="#E21E26"/>
</svg>
