<svg width="12" height="12" viewBox="0 0 12 12" fill="none" xmlns="http://www.w3.org/2000/svg">
<path d="M3.08079 8.16463C2.92259 8.32284 2.91505 8.60534 3.08456 8.77108C3.25029 8.93682 3.5328 8.93305 3.691 8.77485L5.99625 6.46583L8.30526 8.77485C8.46723 8.93682 8.74597 8.93682 8.9117 8.77108C9.07367 8.60158 9.07744 8.3266 8.9117 8.16463L6.60646 5.85562L8.9117 3.55038C9.07744 3.38841 9.07744 3.10967 8.9117 2.94393C8.7422 2.78196 8.46723 2.77819 8.30526 2.94016L5.99625 5.24918L3.691 2.94016C3.5328 2.78196 3.24653 2.77443 3.08456 2.94393C2.91882 3.10967 2.92259 3.39217 3.08079 3.55038L5.3898 5.85562L3.08079 8.16463Z" fill="black"/>
</svg>
